<svg width="45" height="49" viewBox="0 0 45 49" fill="none" xmlns="http://www.w3.org/2000/svg">
    <path
        d="M37.512 24L36.864 19.104L37.536 17.136L36.864 15.192L37.512 10.248H43.224L42.312 17.112L43.224 24H37.512ZM38.736 17.136C38.544 18.592 38.12 19.872 37.464 20.976C36.824 22.064 35.992 22.912 34.968 23.52C33.96 24.112 32.8 24.408 31.488 24.408C30.16 24.408 28.984 24.104 27.96 23.496C26.936 22.888 26.136 22.04 25.56 20.952C25 19.848 24.72 18.576 24.72 17.136C24.72 15.664 25 14.384 25.56 13.296C26.136 12.192 26.936 11.344 27.96 10.752C28.984 10.144 30.16 9.84 31.488 9.84C32.8 9.84 33.96 10.136 34.968 10.728C35.992 11.32 36.832 12.168 37.488 13.272C38.144 14.36 38.56 15.648 38.736 17.136ZM30.264 17.136C30.264 17.744 30.384 18.28 30.624 18.744C30.88 19.208 31.232 19.576 31.68 19.848C32.128 20.12 32.64 20.256 33.216 20.256C33.808 20.256 34.376 20.12 34.92 19.848C35.464 19.576 35.944 19.208 36.36 18.744C36.776 18.28 37.08 17.744 37.272 17.136C37.08 16.528 36.776 15.992 36.36 15.528C35.944 15.048 35.464 14.672 34.92 14.4C34.376 14.128 33.808 13.992 33.216 13.992C32.64 13.992 32.128 14.128 31.68 14.4C31.232 14.672 30.88 15.048 30.624 15.528C30.384 15.992 30.264 16.528 30.264 17.136Z"
        fill="#313131" />
    <g filter="url(#filter0_f_30_50)">
        <path
            d="M12.152 6C14.2 6 15.992 6.376 17.528 7.128C19.08 7.88 20.288 8.936 21.152 10.296C22.016 11.64 22.448 13.208 22.448 15C22.448 16.792 22.016 18.368 21.152 19.728C20.288 21.072 19.08 22.12 17.528 22.872C15.992 23.624 14.2 24 12.152 24H4.016V6H12.152ZM7.184 22.896L5.432 21.216H12.368C13.744 21.216 14.944 20.96 15.968 20.448C17.008 19.92 17.808 19.192 18.368 18.264C18.944 17.32 19.232 16.232 19.232 15C19.232 13.752 18.944 12.664 18.368 11.736C17.808 10.808 17.008 10.088 15.968 9.576C14.944 9.048 13.744 8.784 12.368 8.784H5.432L7.184 7.104V22.896Z"
            fill="#2306D7" />
    </g>
    <path
        d="M11.824 6C13.984 6 15.872 6.376 17.488 7.128C19.12 7.864 20.384 8.904 21.28 10.248C22.192 11.592 22.648 13.176 22.648 15C22.648 16.808 22.192 18.392 21.28 19.752C20.384 21.096 19.12 22.144 17.488 22.896C15.872 23.632 13.984 24 11.824 24H2.56V6H11.824ZM8.104 21.576L5.536 19.032H12.256C13.232 19.032 14.072 18.872 14.776 18.552C15.496 18.216 16.048 17.744 16.432 17.136C16.816 16.528 17.008 15.816 17.008 15C17.008 14.168 16.816 13.456 16.432 12.864C16.048 12.256 15.496 11.792 14.776 11.472C14.072 11.136 13.232 10.968 12.256 10.968H5.536L8.104 8.424V21.576Z"
        fill="#2306D7" />
    <path
        d="M13.44 40.36L11.592 40.336L16.08 29.248H21.912L15.576 43H9.312L2.976 29.248H9.048L13.44 40.36Z"
        fill="#313131" />
    <path
        d="M37.512 43L36.864 38.104L37.536 36.136L36.864 34.192L37.512 29.248H43.224L42.312 36.112L43.224 43H37.512ZM38.736 36.136C38.544 37.592 38.12 38.872 37.464 39.976C36.824 41.064 35.992 41.912 34.968 42.52C33.96 43.112 32.8 43.408 31.488 43.408C30.16 43.408 28.984 43.104 27.96 42.496C26.936 41.888 26.136 41.04 25.56 39.952C25 38.848 24.72 37.576 24.72 36.136C24.72 34.664 25 33.384 25.56 32.296C26.136 31.192 26.936 30.344 27.96 29.752C28.984 29.144 30.16 28.84 31.488 28.84C32.8 28.84 33.96 29.136 34.968 29.728C35.992 30.32 36.832 31.168 37.488 32.272C38.144 33.36 38.56 34.648 38.736 36.136ZM30.264 36.136C30.264 36.744 30.384 37.28 30.624 37.744C30.88 38.208 31.232 38.576 31.68 38.848C32.128 39.12 32.64 39.256 33.216 39.256C33.808 39.256 34.376 39.12 34.92 38.848C35.464 38.576 35.944 38.208 36.36 37.744C36.776 37.28 37.08 36.744 37.272 36.136C37.08 35.528 36.776 34.992 36.36 34.528C35.944 34.048 35.464 33.672 34.92 33.4C34.376 33.128 33.808 32.992 33.216 32.992C32.64 32.992 32.128 33.128 31.68 33.4C31.232 33.672 30.88 34.048 30.624 34.528C30.384 34.992 30.264 35.528 30.264 36.136Z"
        fill="#313131" />
    <defs>
        <filter id="filter0_f_30_50" x="0.0161133" y="2" width="26.4321" height="26"
            filterUnits="userSpaceOnUse" color-interpolation-filters="sRGB">
            <feFlood flood-opacity="0" result="BackgroundImageFix" />
            <feBlend mode="normal" in="SourceGraphic" in2="BackgroundImageFix" result="shape" />
            <feGaussianBlur stdDeviation="2" result="effect1_foregroundBlur_30_50" />
        </filter>
    </defs>
</svg>