<svg aria-hidden="true" style="position: absolute; width: 0; height: 0; overflow: hidden;"
    version="1.1" xmlns="http://www.w3.org/2000/svg" xmlns:xlink="http://www.w3.org/1999/xlink">
    <defs>
        <symbol id="icon-Dava" viewBox="0 0 29 32">
            <path fill="#313131" style="fill: var(--color1, #313131)"
                d="M24.498 15.673l-0.423-3.197 0.439-1.285-0.439-1.27 0.423-3.229h3.73l-0.596 4.483 0.596 4.498h-3.73zM25.297 11.191c-0.125 0.951-0.402 1.787-0.831 2.508-0.418 0.711-0.961 1.264-1.63 1.661-0.658 0.387-1.416 0.58-2.273 0.58-0.867 0-1.635-0.199-2.304-0.596s-1.191-0.951-1.567-1.661c-0.366-0.721-0.549-1.552-0.549-2.492 0-0.961 0.183-1.797 0.549-2.508 0.376-0.721 0.899-1.275 1.567-1.661 0.669-0.397 1.437-0.596 2.304-0.596 0.857 0 1.614 0.193 2.273 0.58 0.669 0.387 1.217 0.94 1.646 1.661 0.428 0.711 0.7 1.552 0.815 2.523zM19.764 11.191c0 0.397 0.078 0.747 0.235 1.050 0.167 0.303 0.397 0.543 0.69 0.721s0.627 0.266 1.003 0.266c0.387 0 0.758-0.089 1.113-0.266s0.669-0.418 0.94-0.721c0.272-0.303 0.47-0.653 0.596-1.050-0.125-0.397-0.324-0.747-0.596-1.050-0.272-0.313-0.585-0.559-0.94-0.737s-0.726-0.266-1.113-0.266c-0.376 0-0.711 0.089-1.003 0.266s-0.522 0.423-0.69 0.737c-0.157 0.303-0.235 0.653-0.235 1.050z"></path>
            <path fill="#2306d7" style="fill: var(--color2, #2306d7)"
                d="M7.936 3.918c1.337 0 2.508 0.246 3.511 0.737 1.014 0.491 1.802 1.181 2.367 2.069 0.564 0.878 0.846 1.902 0.846 3.072s-0.282 2.2-0.846 3.088c-0.564 0.878-1.353 1.562-2.367 2.053-1.003 0.491-2.173 0.737-3.511 0.737h-5.313v-11.755h5.313zM4.692 14.953l-1.144-1.097h4.53c0.899 0 1.682-0.167 2.351-0.502 0.679-0.345 1.202-0.82 1.567-1.426 0.376-0.617 0.564-1.327 0.564-2.132 0-0.815-0.188-1.526-0.564-2.132-0.366-0.606-0.888-1.076-1.567-1.411-0.669-0.345-1.452-0.517-2.351-0.517h-4.53l1.144-1.097v10.313z"></path>
            <path fill="#2306d7" style="fill: var(--color2, #2306d7)"
                d="M7.722 3.918c1.411 0 2.644 0.246 3.699 0.737 1.066 0.481 1.891 1.16 2.476 2.038 0.596 0.878 0.893 1.912 0.893 3.103 0 1.181-0.298 2.215-0.893 3.103-0.585 0.878-1.411 1.562-2.476 2.053-1.055 0.481-2.288 0.721-3.699 0.721h-6.050v-11.755h6.050zM5.292 14.090l-1.677-1.661h4.389c0.637 0 1.186-0.104 1.646-0.313 0.47-0.219 0.831-0.528 1.081-0.925s0.376-0.862 0.376-1.395c0-0.543-0.125-1.008-0.376-1.395-0.251-0.397-0.611-0.7-1.081-0.909-0.46-0.219-1.008-0.329-1.646-0.329h-4.389l1.677-1.661v8.589z"></path>
            <path fill="#313131" style="fill: var(--color1, #313131)"
                d="M8.777 26.358l-1.207-0.016 2.931-7.241h3.809l-4.138 8.981h-4.091l-4.138-8.981h3.965l2.868 7.257z"></path>
            <path fill="#313131" style="fill: var(--color1, #313131)"
                d="M24.498 28.082l-0.423-3.197 0.439-1.285-0.439-1.27 0.423-3.229h3.73l-0.596 4.483 0.596 4.498h-3.73zM25.297 23.599c-0.125 0.951-0.402 1.787-0.831 2.508-0.418 0.711-0.961 1.264-1.63 1.661-0.658 0.387-1.416 0.58-2.273 0.58-0.867 0-1.635-0.199-2.304-0.596s-1.191-0.951-1.567-1.661c-0.366-0.721-0.549-1.552-0.549-2.492 0-0.961 0.183-1.797 0.549-2.508 0.376-0.721 0.899-1.275 1.567-1.661 0.669-0.397 1.437-0.596 2.304-0.596 0.857 0 1.614 0.193 2.273 0.58 0.669 0.387 1.217 0.94 1.646 1.661 0.428 0.711 0.7 1.552 0.815 2.523zM19.764 23.599c0 0.397 0.078 0.747 0.235 1.050 0.167 0.303 0.397 0.543 0.69 0.721s0.627 0.266 1.003 0.266c0.387 0 0.758-0.089 1.113-0.266s0.669-0.418 0.94-0.721c0.272-0.303 0.47-0.653 0.596-1.050-0.125-0.397-0.324-0.747-0.596-1.050-0.272-0.313-0.585-0.559-0.94-0.737s-0.726-0.266-1.113-0.266c-0.376 0-0.711 0.089-1.003 0.266s-0.522 0.423-0.69 0.737c-0.157 0.303-0.235 0.653-0.235 1.050z"></path>
        </symbol>
        <symbol id="icon-hand-wave" viewBox="0 0 28 32">
            <path
                d="M10.893 25.409c0-0.034 0-0.068 0-0.099-0-0.020-0.001-0.043-0.001-0.067 0-1.134 0.426-2.168 1.127-2.951l-0.004 0.004-3.581-3.578c-0.271-0.27-0.645-0.437-1.059-0.437s-0.787 0.167-1.059 0.437l0-0c-0.269 0.271-0.436 0.645-0.436 1.057s0.167 0.786 0.436 1.057l4.575 4.575zM8.776 28.404c0.447 0.132 0.767 0.539 0.767 1.021 0 0.587-0.476 1.063-1.063 1.063-0.105 0-0.207-0.015-0.303-0.044l0.008 0.002c-2.020-0.558-3.764-1.549-5.196-2.872l0.008 0.008c-1.301-1.258-2.308-2.812-2.913-4.554l-0.025-0.082c-0.032-0.096-0.050-0.207-0.050-0.322 0-0.588 0.477-1.065 1.065-1.065 0.449 0 0.833 0.278 0.99 0.671l0.003 0.007c0.512 1.496 1.334 2.771 2.394 3.803l0.002 0.002c1.184 1.092 2.633 1.914 4.24 2.358l0.073 0.017zM16.635 5.828c-0.37-0.172-0.622-0.54-0.622-0.967 0-0.587 0.476-1.063 1.063-1.063 0.169 0 0.329 0.040 0.472 0.11l-0.006-0.003c1.013 0.477 1.886 1.047 2.669 1.719l-0.016-0.013c0.758 0.652 1.414 1.391 1.962 2.208l0.025 0.039c0.122 0.171 0.195 0.384 0.195 0.614 0 0.588-0.477 1.065-1.065 1.065-0.381 0-0.715-0.2-0.903-0.5l-0.003-0.004c-0.46-0.688-0.986-1.281-1.582-1.795l-0.011-0.010c-0.629-0.54-1.346-1.007-2.119-1.374l-0.058-0.025zM17.721 2.083c-0.447-0.132-0.767-0.539-0.767-1.021 0-0.587 0.476-1.063 1.063-1.063 0.105 0 0.207 0.015 0.303 0.044l-0.008-0.002c2.021 0.559 3.765 1.55 5.199 2.872l-0.009-0.008c1.3 1.262 2.306 2.819 2.91 4.564l0.025 0.082c0.032 0.096 0.050 0.207 0.050 0.322 0 0.588-0.477 1.065-1.065 1.065-0.449 0-0.833-0.278-0.99-0.671l-0.003-0.007c-0.514-1.491-1.335-2.761-2.394-3.789l-0.002-0.002c-1.183-1.095-2.633-1.921-4.24-2.368l-0.073-0.017zM24.091 18.581c-0.855 0.364-1.588 0.845-2.221 1.432l0.005-0.004c-0.507 0.465-0.884 1.063-1.077 1.739l-0.006 0.026c-0.054 0.209-0.086 0.448-0.086 0.695 0 0.408 0.085 0.795 0.239 1.146l-0.007-0.018c0.234 0.526 0.55 0.974 0.937 1.351l0.001 0.001-0.521 0.482c-2.685-2.88-1.268-5.638 2.112-7.357l-1.003-0.953c-0.081-0.081-0.166-0.158-0.254-0.23l-0.006-0.005c-0.056-0.020-0.104-0.049-0.147-0.084l0.001 0.001c-0.455-0.294-1.012-0.469-1.609-0.469-0.108 0-0.214 0.006-0.318 0.017l0.013-0.001c-0.717 0.067-1.35 0.381-1.823 0.854l-0.195 0.195h-0.016l-5.378 5.404c-0.040 0.040-0.086 0.073-0.138 0.098l-0.003 0.001-0.096 0.099c-0.467 0.466-0.78 1.088-0.853 1.781l-0.001 0.013c-0.010 0.094-0.016 0.202-0.016 0.312 0 0.234 0.026 0.461 0.074 0.68l-0.004-0.021c0.151 0.524 0.422 0.973 0.781 1.333l3.234 3.234c1.015 1.021 2.417 1.656 3.967 1.667h0.002c0.013 0 0.028 0 0.043 0 1.52 0 2.895-0.618 3.889-1.617l2.453-2.453c1.142-1.044 1.856-2.541 1.856-4.204 0-0.052-0.001-0.103-0.002-0.155l0 0.008v-0.029l-0.036-7.612c-0.001-0.012-0.002-0.025-0.002-0.039s0.001-0.027 0.002-0.041l-0 0.002 0.555 0.034-0.552-0.034c0.073-1.185-0.346-1.951-0.904-2.292-0.183-0.116-0.403-0.19-0.64-0.203l-0.003-0c-0.020-0.001-0.043-0.002-0.066-0.002-0.204 0-0.397 0.051-0.566 0.14l0.007-0.003c-0.492 0.26-0.865 0.867-0.865 1.865 0 0.229 0 0.836-0.016 1.411-0.001 0.486-0.051 0.96-0.146 1.418l0.008-0.046c-0.023 0.111-0.076 0.207-0.151 0.281v0c-0.099 0.102-0.238 0.166-0.392 0.166-0.023 0-0.046-0.001-0.069-0.004l0.003 0zM12.471 21.773l2.112-2.117-5.729-5.729c-0.269-0.262-0.636-0.425-1.041-0.427h-0c-0.002 0-0.005-0-0.008-0-0.411 0-0.782 0.166-1.052 0.435l0-0c-0.269 0.272-0.435 0.647-0.435 1.060s0.166 0.788 0.436 1.060l5.729 5.729zM15.154 19.091l2.117-2.117-7.552-7.552c-0.272-0.269-0.647-0.435-1.060-0.435s-0.788 0.166-1.060 0.436l0-0c-0.269 0.272-0.435 0.647-0.435 1.060s0.166 0.788 0.436 1.060l7.552 7.552zM17.951 16.62c0.799-0.702 1.854-1.13 3.009-1.13 0.007 0 0.014 0 0.021 0h0.072l-6.693-6.695c-0.272-0.27-0.646-0.436-1.059-0.436s-0.787 0.167-1.059 0.436l0-0c-0.27 0.272-0.436 0.646-0.436 1.059s0.167 0.787 0.436 1.059l5.706 5.711z"></path>
        </symbol>

    </defs>
</svg>